<?xml version="1.0" standalone="no"?><!DOCTYPE svg PUBLIC "-//W3C//DTD SVG 1.1//EN" "http://www.w3.org/Graphics/SVG/1.1/DTD/svg11.dtd"><svg width="100%" height="100%" viewBox="0 0 1624 347" version="1.1" xmlns="http://www.w3.org/2000/svg" xmlns:xlink="http://www.w3.org/1999/xlink" xml:space="preserve" style="fill-rule:evenodd;clip-rule:evenodd;stroke-linecap:round;stroke-linejoin:round;stroke-miterlimit:1.41421;"><g id="S"><path d="M102.798,35.898l-11.623,22.131c0,0 -21.746,-17.654 -54.294,8.54c-12.01,9.665 -6.404,35.237 1.028,43.648c20.985,23.748 41.005,39.599 54.993,53.174c24.013,23.304 32.836,34.586 43.255,50.403c10.917,16.575 15.609,32.011 13.977,47.774c-2.691,25.986 -20.955,40.383 -39.804,49.142c-55.357,25.724 -109.464,-60.485 -109.464,-60.485l25.655,-15.315c0,0 16.488,26.819 27.354,37.957c11.096,11.374 31.926,20.804 43.814,18.197c19.697,-4.32 30.043,-23.203 29.021,-33.6c-3.817,-38.852 -30.915,-58.531 -43.146,-72.934c-16.597,-19.546 -40.483,-35.488 -53.126,-51.53c-10.352,-13.134 -21.244,-26.827 -22.733,-44.722c-1.176,-14.123 9.126,-30.305 20.397,-40.277c11.37,-10.06 29.726,-20.225 47.821,-20.079c15.081,0.121 26.875,7.976 26.875,7.976Z" style="fill:#fff;stroke-width:1px;stroke:#fff;"/></g><g id="P"><path d="M182.025,33.867l-6.468,277.409l29.52,0.192c0,0 -0.455,-51.172 -0.392,-78.29c0.047,-20.278 12.883,-40.166 26.345,-55.331c18.541,-20.886 73.744,-47.314 87.981,-69.104c11.247,-17.214 10.1,-48.621 -2.56,-61.635c-12.66,-13.015 -36.467,-17.484 -73.398,-16.453c-27.379,0.765 -61.028,3.212 -61.028,3.212ZM204.096,185.916l2.321,-131.519c0,0 38.582,-2.669 54.433,-1.996c11.132,0.473 34.282,-0.917 43.113,15.073c5.791,10.487 0.013,27.845 -8.7,38.112c-10.78,12.701 -38.174,32.447 -51.887,41.39c-24.23,15.8 -39.28,38.94 -39.28,38.94Z" style="fill:#fff;stroke-width:1px;stroke:#fff;"/></g><g id="E"><path d="M360.34,34.647c0.097,-0.734 -3.014,279.497 -3.014,279.497l117,-0.001l-4.646,-27.18l-86.27,4.502l-2.299,-177.291l125.229,-2.689l-1.807,-24.34l-123.533,7.932l-0.131,-40.584l83.338,-0.83l0.49,-25.028c0,0 -104.455,6.746 -104.357,6.012Z" style="fill:#fff;stroke-width:1px;stroke:#fff;"/></g><g id="A"><path d="M510.771,313.858l89.155,-312.992l70.907,315.405l-26.426,0.652l-6.6,-36.268l-92.559,-2.281l-8.847,37.166l-25.63,-1.682ZM557.642,231.487c-5.392,3.592 -10.536,29.536 -7.962,31.186c2.783,1.783 80.098,2.314 84.009,-0.78c2.683,-2.122 -2.809,-28.011 -5.63,-30.519c-1.974,-1.754 -66.209,-2.69 -70.417,0.113ZM559.993,213.688l63.152,0.832l-24.44,-142.047l-38.712,141.215Z" style="fill:#fff;stroke-width:1px;stroke:#fff;"/></g><g id="R"><path d="M763.626,153.426c-22.542,0.897 -41.947,0.293 -41.947,0.293l2.346,160.033l-27.226,0l5.572,-285.557c0,0 78.702,-3.372 104.355,3.032c37.114,9.264 41.552,31.845 42.135,51.713c0.653,22.258 -0.998,44.993 -20.92,59.146c-7.814,5.551 -25.553,8.546 -44.342,10.132c5.06,17.533 23.927,82.697 30.705,99.897c5.239,13.292 23.487,71.903 37.1,69.258c13.165,-2.558 21.896,-37.39 21.896,-37.39l12.858,31.236c0,0 -18.928,28.095 -31.576,30.303c-9.247,1.614 -21.978,-7.589 -27.959,-18.573c-10.925,-20.06 -32.349,-64.322 -62.997,-173.523ZM724.22,51.217l-2.15,82.754c0,0 67.365,2.673 85.441,-4.789c20.204,-8.341 24.815,-23.758 24.977,-39.494c0.216,-20.979 -15.588,-32.576 -34.703,-37.832c-18.465,-5.078 -73.565,-0.639 -73.565,-0.639Z" style="fill:#fff;stroke-width:1.18px;stroke:#fff;"/></g><g id="W"><path d="M994.182,200.713l-28.313,114.688l-18.77,0.781l-60.347,-287.935l23.529,1.172l47.213,240.69l24.167,-97.891l-34.69,-139.409l27.336,0.358l21.363,99.076l24.683,-99.629l23.79,-0.781l-37.989,137.626l23.684,103.415l44.347,-244.236l25.093,-0.066l-61.849,286.438l-20.333,-0.391l-22.914,-113.906Z" style="fill:#fff;stroke-width:1.16px;stroke:#fff;"/></g><g id="O"><path d="M1205.3,30.373c-73.481,0.702 -74.529,44.907 -72.698,69.766c4.806,65.254 40.629,79.172 67.453,76.644c84.886,-8 78.876,-58.345 79.574,-79.086c0.838,-24.911 -3.091,-68.004 -74.329,-67.324ZM1205.14,53.217c-47.66,-0.148 -53.887,31.882 -53.41,49.042c1.185,42.698 35.247,53.084 50.676,52.954c46.652,-0.392 53.695,-37.083 53.89,-53.637c0.192,-16.248 6.963,-46.909 -47.985,-48.314c-1.035,-0.027 -2.091,-0.042 -3.171,-0.045Z" style="fill:#fff;stroke-width:1.48px;stroke:#fff;"/><path d="M1157.31,220.705l0.849,32.521l92.219,3.518l-1.438,-37.343l-91.63,1.304Z" style="fill:#fff;stroke-width:1px;stroke:#fff;"/></g><g id="L"><path d="M1320.02,30.054l-1.698,283.373l109.881,-0.651l1.958,-32.003l-87.398,6.844l5.083,-260.433l-27.826,2.87Z" style="fill:#fff;stroke-width:1px;stroke:#fff;"/></g><g id="F"><path d="M1475.07,29.848c0,0 -3.388,286.178 -3.713,284.938c-0.326,-1.24 32.779,-1.042 32.779,-1.042l-0.779,-184.57l119.461,-0.065l-2.805,-27.633l-117.375,1.563l0.195,-48.948l66.737,2.153l-3.388,-27.437l-91.112,1.041Z" style="fill:#fff;stroke-width:1px;stroke:#fff;"/></g></svg>